<svg width="132" height="38" viewBox="0 0 132 38" fill="none" xmlns="http://www.w3.org/2000/svg">
<path d="M61.4118 18.2484H58.5127L60.4723 15.5494L58.6878 12.8449H61.5869L62.4763 14.5538L62.5125 14.6713L62.5569 14.5538L63.4464 12.8449H66.3371L64.5527 15.5494L66.5122 18.2484H63.6132L62.5514 16.422L62.5152 16.3409L62.4791 16.422L61.4173 18.2484H61.4118ZM71.6043 18.2484H67.0737V12.8449H71.6127C73.0136 12.8449 73.9391 13.1498 73.9391 14.1091C73.9391 14.7775 73.5194 15.2362 72.5744 15.3537V15.3677C73.5722 15.4851 74.2004 15.9774 74.2004 16.7409C74.2004 17.9687 72.958 18.2456 71.6071 18.2456L71.6043 18.2484ZM69.5503 14.2629V15.0041H71.0401C71.4459 15.0041 71.6405 14.895 71.6405 14.6489C71.6405 14.3804 71.4598 14.2629 71.0901 14.2629H69.5503ZM69.5503 15.9941V16.8304H71.0596C71.4932 16.8304 71.7016 16.7129 71.7016 16.4025C71.7016 16.12 71.4765 15.9941 71.0067 15.9941H69.5475H69.5503ZM82.4084 18.2484H79.6761L79.3787 17.3674H77.1384L76.841 18.2484H74.117L76.4213 12.8449H80.0486L82.4056 18.2484H82.4084ZM78.1946 14.2405L77.5887 16.0445H78.934L78.328 14.2405L78.278 14.0448H78.2502L78.2002 14.2405H78.1946ZM90.583 12.8449V18.2484H88.0453V14.4895H86.3331L86.2886 15.5802C86.1524 17.8792 85.313 18.4078 82.6613 18.4078V16.7633C83.5647 16.7633 83.7092 16.4808 83.7454 15.8403C83.8037 14.8502 83.8176 13.849 83.8176 12.8449H90.583ZM99.2052 12.8449V18.2484H96.9926V15.3313L96.9426 15.3956L94.1242 18.2456H91.6309V12.8421H93.849V15.6865L93.8406 15.7676L93.899 15.6865L96.7036 12.8421H99.2052V12.8449ZM104.333 18.2484H101.796V14.372H99.7861V12.8449H106.335V14.372H104.333V18.2484ZM112.997 18.2484H106.913V12.8449H112.919V14.3272H109.459V14.9174H112.611V16.0808H109.459V16.7633H113V18.2456L112.997 18.2484ZM66.3038 23.6602C66.3038 25.3187 65.0974 26.3059 63.1156 26.4681V27.4638H61.9454V26.4681C59.9581 26.3087 58.7518 25.3187 58.7518 23.6602C58.7518 21.8422 60.1971 20.8382 62.5319 20.8382C64.8667 20.8382 66.3038 21.8422 66.3038 23.6602ZM62.5319 25.5004C63.9412 25.5004 64.9084 24.818 64.9084 23.6602C64.9084 22.5023 63.9412 21.8199 62.5319 21.8199C61.1227 21.8199 60.1471 22.4659 60.1471 23.6602C60.1471 24.8544 61.1144 25.5004 62.5319 25.5004ZM70.4091 26.4905C68.0521 26.4905 67.1126 25.5816 67.1126 23.8447V20.9585H68.4996V23.8308C68.4996 24.9495 69.15 25.5032 70.4147 25.5032C71.6794 25.5032 72.3215 24.9495 72.3215 23.8391V20.9585H73.7085V23.8531C73.7085 25.5704 72.7968 26.4933 70.4064 26.4933L70.4091 26.4905ZM81.4578 26.3591H79.9179L79.3481 25.1676H76.0961L75.5179 26.3591H73.992L76.7965 20.9557H78.631L81.4578 26.3591ZM77.6637 21.915L76.5352 24.2419H78.9062L77.786 21.915L77.7277 21.7919H77.7138L77.6637 21.915ZM87.4116 26.3591H82.2444V20.9557H83.6258V25.3466H87.4116V26.3563V26.3591ZM89.7631 26.3591H88.3816V20.9557H89.7631V26.3591ZM94.4438 26.3591H93.0624V21.9681H90.5413V20.9585H96.9648V21.9681H94.4438V26.3591ZM101.412 26.3591H100.031V24.7509L97.076 20.9557H98.7604L100.631 23.5371L100.717 23.6909L100.812 23.5371L102.668 20.9557H104.367L101.412 24.7509V26.3591Z" fill="#C3C3C3"/>
<path d="M46.7191 12.3974C51.8057 12.6436 54.702 14.867 54.702 18.7657V18.8469C54.702 22.3652 52.3505 24.5327 48.1534 25.1089V27.3911H54.7103V12.3974H46.7191ZM44.7874 12.3974H36.7823V11.536H18.7236V12.9344H25.2722L27.671 16.7968L27.7516 17.0597L27.8516 16.7968L30.2476 12.9344H36.7795L32.3573 19.0482L36.7823 25.1424H30.2337L27.835 21.02L27.7516 20.8382L27.671 21.02L25.2722 25.1424H18.7236V26.5436H36.7823V27.3911H43.3198V25.1089C39.1227 24.5327 36.7879 22.3652 36.7879 18.8469V18.7657C36.7879 14.867 39.6869 12.6436 44.7874 12.3974ZM18.7236 12.9344V25.1424L23.1487 19.0482L18.7236 12.9344Z" fill="#C3C3C3"/>
<path d="M45.2099 14.828C45.1793 14.8196 45.1654 14.8588 45.1932 14.8756C45.5824 15.0797 45.9159 15.393 46.141 15.7705C47.3084 17.7171 44.5233 18.2989 44.8263 16.8417C44.8791 16.5872 45.0876 16.3747 45.3378 16.3075C45.36 16.3019 45.36 16.2684 45.3378 16.2684C42.0662 16.0027 41.1629 21.3949 45.8909 21.3949C49.6544 21.3949 50.8718 16.3383 45.2127 14.828H45.2099Z" fill="#C3C3C3"/>
</svg>
